<svg width="64" height="32" viewBox="0 0 64 32" fill="none" xmlns="http://www.w3.org/2000/svg">
<path fill-rule="evenodd" clip-rule="evenodd" d="M27.5556 27C32.7103 27 36.8889 22.8213 36.8889 17.6667C36.8889 12.512 32.7103 8.3333 27.5556 8.3333C22.4009 8.3333 18.2222 12.512 18.2222 17.6667C18.2222 22.8213 22.4009 27 27.5556 27ZM27.5556 22.7778C30.3784 22.7778 32.6667 20.4894 32.6667 17.6667C32.6667 14.8439 30.3784 12.5555 27.5556 12.5555C24.7328 12.5555 22.4445 14.8439 22.4445 17.6667C22.4445 20.4894 24.7328 22.7778 27.5556 22.7778Z" fill="#0C1114"/>
<path d="M44.2223 3H40.0001V6.55556H44.2223V3Z" fill="#0C1114"/>
<path d="M40.0001 12.3333H37.7778V8.77776H44.2223V26.5556H40.0001V12.3333Z" fill="#0C1114"/>
<path d="M52.0005 11.4444C53.0249 9.90102 54.6704 8.3333 57.3339 8.3333C61.8078 8.3333 64.0005 11.6666 64.0005 15.8889V26.5556H59.7783V16.7778C59.7783 14.3426 58.3574 12.5555 56.0005 12.5555C53.4736 12.5555 52.0005 14.7354 52.0005 17.4444V26.5556H47.7779V8.77775H52.0005V11.4444Z" fill="#0C1114"/>
<path d="M0 8.77776V26.5556H4.2222V8.77776H0Z" fill="#0C1114"/>
<path d="M11.1111 15.4444L19.1112 26.5555H13.7778L8.66669 19.6666L11.1111 15.4444Z" fill="#0C1114"/>
<path d="M12.6667 6.55554L0.88887 26.5556H5.77777L17.5556 6.55554H12.6667Z" fill="#10B132"/>
</svg>
