<svg width="32" height="32" viewBox="0 0 32 32" fill="none" xmlns="http://www.w3.org/2000/svg">
<path d="M0 9.6C0 6.23969 0 4.55953 0.653961 3.27606C1.2292 2.14708 2.14708 1.2292 3.27606 0.653961C4.55953 0 6.23969 0 9.6 0H22.4C25.7603 0 27.4405 0 28.7239 0.653961C29.8529 1.2292 30.7708 2.14708 31.346 3.27606C32 4.55953 32 6.23969 32 9.6V22.4C32 25.7603 32 27.4405 31.346 28.7239C30.7708 29.8529 29.8529 30.7708 28.7239 31.346C27.4405 32 25.7603 32 22.4 32H9.6C6.23969 32 4.55953 32 3.27606 31.346C2.14708 30.7708 1.2292 29.8529 0.653961 28.7239C0 27.4405 0 25.7603 0 22.4V9.6Z" fill="#0C1114"/>
<path d="M11.9766 25H8V9H11.9766V25Z" fill="#FCFCFD"/>
<path d="M26 25H20.9766L16.1631 18.7998L18.4648 15L26 25Z" fill="#FCFCFD"/>
<path d="M19.9302 7L8.83718 25H13.4418L24.5349 7H19.9302Z" fill="#14DD3E"/>
</svg>
